<svg width="224" height="173" viewBox="0 0 224 173" fill="none" xmlns="http://www.w3.org/2000/svg">
<rect x="0.576172" y="0.784912" width="222.651" height="171.493" rx="15.1764" fill="#A01775"/>
<mask id="mask0_5212_10744" style="mask-type:alpha" maskUnits="userSpaceOnUse" x="0" y="0" width="224" height="173">
<rect x="0.576172" y="0.784912" width="222.651" height="171.493" rx="15.1764" fill="#4FD1C5"/>
</mask>
<g mask="url(#mask0_5212_10744)">
<g opacity="0.2">
<path d="M225.525 -7.30914C325.513 -7.30914 406.561 72.9859 406.562 172.025C406.562 271.064 325.513 351.36 225.525 351.36C125.537 351.36 44.4893 271.064 44.4893 172.025C44.4894 72.9859 125.537 -7.30909 225.525 -7.30914Z" stroke="white" stroke-width="1.01176"/>
<path d="M225.527 17.0073C311.96 17.0074 382.02 86.4171 382.02 172.028C382.019 257.638 311.96 327.047 225.527 327.047C139.095 327.047 69.0353 257.639 69.0352 172.028C69.0352 86.417 139.095 17.0073 225.527 17.0073Z" stroke="white" stroke-width="1.01176"/>
<path d="M225.526 44.6768C296.534 44.6768 354.089 101.699 354.089 172.029C354.089 242.36 296.534 299.382 225.526 299.382C154.519 299.382 96.9639 242.36 96.9639 172.029C96.9639 101.699 154.519 44.6768 225.526 44.6768Z" stroke="white" stroke-width="1.01176"/>
<path d="M225.526 72.3437C281.109 72.3437 326.159 116.978 326.159 172.028C326.159 227.078 281.109 271.713 225.526 271.713C169.944 271.713 124.894 227.078 124.894 172.028C124.894 116.979 169.944 72.3438 225.526 72.3437Z" stroke="white" stroke-width="1.01176"/>
<path d="M225.525 99.1707C266.15 99.1707 299.075 131.794 299.075 172.026C299.075 212.259 266.15 244.882 225.525 244.882C184.9 244.882 151.976 212.259 151.976 172.026C151.976 131.794 184.9 99.1707 225.525 99.1707Z" stroke="white" stroke-width="1.01176"/>
<path d="M225.526 123.491C252.596 123.491 274.531 145.228 274.531 172.032C274.531 198.836 252.596 220.574 225.526 220.574C198.457 220.574 176.521 198.836 176.521 172.032C176.521 145.228 198.457 123.491 225.526 123.491Z" stroke="white" stroke-width="1.01176"/>
<path d="M225.525 142.936C241.749 142.936 254.893 155.964 254.894 172.024C254.894 188.084 241.749 201.112 225.525 201.112C209.301 201.112 196.157 188.084 196.157 172.024C196.157 155.964 209.301 142.936 225.525 142.936Z" stroke="white" stroke-width="1.01176"/>
</g>
</g>
</svg>
