<svg width="13" height="13" viewBox="0 0 13 13" fill="none" xmlns="http://www.w3.org/2000/svg">
<g clip-path="url(#clip0_5245_108)">
<path d="M3.41406 4.04817H7.4611V5.05993H3.41406V4.04817ZM3.41406 6.07169H9.48462V7.08345H3.41406V6.07169ZM3.41406 8.09521H4.92664V9.10697H3.41406V8.09521Z" fill="#808080" fill-opacity="0.55"/>
<path d="M7.46118 2.02466L5.94354 0.507019V1.51878H2.40238C2.13405 1.51878 1.8767 1.62537 1.68696 1.81512C1.49722 2.00486 1.39063 2.2622 1.39062 2.53054V10.6246C1.39063 10.8929 1.49722 11.1503 1.68696 11.34C1.8767 11.5298 2.13405 11.6364 2.40238 11.6364H4.4259V10.6246H2.40238V2.53054H5.94354V3.5423L7.46118 2.02466ZM5.43766 11.1305L6.9553 12.6481V11.6364H10.4965C10.7648 11.6364 11.0221 11.5298 11.2119 11.34C11.4016 11.1503 11.5082 10.8929 11.5082 10.6246V2.53054C11.5082 2.2622 11.4016 2.00486 11.2119 1.81512C11.0221 1.62537 10.7648 1.51878 10.4965 1.51878H8.47294V2.53054H10.4965V10.6246H6.9553V9.61285L5.43766 11.1305Z" fill="#808080" fill-opacity="0.55"/>
</g>
<defs>
<clipPath id="clip0_5245_108">
<rect width="12.1411" height="12.1411" fill="white" transform="translate(0.378906 0.507019)"/>
</clipPath>
</defs>
</svg>
